<svg id="Layer_1" data-name="Layer 1" xmlns="http://www.w3.org/2000/svg" viewBox="0 0 632 212.04"><defs><style>.cls-1{fill:#fff;}.cls-2{fill:#878787;}.cls-3{fill:#1d1d1b;}.cls-4{fill:#e11014;}.cls-5{fill:#ffcf15;}</style></defs><path class="cls-1" d="M133.39,165.47a6.42,6.42,0,0,1-.85-4.3,6.26,6.26,0,0,1,.7-2.07,6.52,6.52,0,0,1,1.45-1.76l.84.5a.39.39,0,0,1,.19.37.69.69,0,0,1-.15.35,4.09,4.09,0,0,0-.59,1,5,5,0,0,0-.33,1.32,4.94,4.94,0,0,0,0,1.48,4.76,4.76,0,0,0,.58,1.51.67.67,0,0,1,.11.56.56.56,0,0,1-.36.36Z"/><path class="cls-1" d="M149.62,161.93a1.12,1.12,0,0,1-.29.34.66.66,0,0,1-.38.11,1,1,0,0,1-.56-.22,7.84,7.84,0,0,0-.79-.51,6,6,0,0,0-1.13-.51,4.92,4.92,0,0,0-1.58-.23,4.57,4.57,0,0,0-1.51.23,3.11,3.11,0,0,0-1.09.62,2.43,2.43,0,0,0-.67.92,2.87,2.87,0,0,0-.23,1.14,2.1,2.1,0,0,0,.41,1.32,3.61,3.61,0,0,0,1.06.89,8.67,8.67,0,0,0,1.5.64l1.71.57a16.9,16.9,0,0,1,1.71.68,6.13,6.13,0,0,1,1.5,1,4.44,4.44,0,0,1,1.06,1.42,4.78,4.78,0,0,1,.4,2.07,6.6,6.6,0,0,1-.44,2.44,5.64,5.64,0,0,1-1.3,2,5.83,5.83,0,0,1-2.09,1.34,7.7,7.7,0,0,1-2.81.49,8.51,8.51,0,0,1-1.84-.19,8.7,8.7,0,0,1-3.18-1.33,7.46,7.46,0,0,1-1.24-1.06l.84-1.4a1.06,1.06,0,0,1,.29-.27.69.69,0,0,1,.4-.11,1.12,1.12,0,0,1,.66.3q.38.3.93.66a6.87,6.87,0,0,0,1.33.67,5.28,5.28,0,0,0,1.89.3,5.11,5.11,0,0,0,1.62-.24,3.37,3.37,0,0,0,1.19-.68,2.92,2.92,0,0,0,.75-1.08,3.53,3.53,0,0,0,.26-1.4,2.29,2.29,0,0,0-.4-1.41,3.15,3.15,0,0,0-1-.92,7.5,7.5,0,0,0-1.49-.63l-1.72-.54c-.58-.19-1.16-.41-1.71-.65a5.6,5.6,0,0,1-1.5-1,4.36,4.36,0,0,1-1-1.49,5.41,5.41,0,0,1-.4-2.22,5.35,5.35,0,0,1,.41-2,5.21,5.21,0,0,1,1.2-1.75,5.94,5.94,0,0,1,1.94-1.22,7,7,0,0,1,2.63-.46,8.53,8.53,0,0,1,3,.53,7.08,7.08,0,0,1,2.42,1.51Z"/><path class="cls-1" d="M159.67,164.26a7.48,7.48,0,0,1,2.78.5,5.75,5.75,0,0,1,2.11,1.44,6.44,6.44,0,0,1,1.33,2.26,8.9,8.9,0,0,1,.47,3,9,9,0,0,1-.47,3,6.35,6.35,0,0,1-1.33,2.26,5.85,5.85,0,0,1-2.11,1.43,8,8,0,0,1-5.57,0,5.89,5.89,0,0,1-2.12-1.43,6.54,6.54,0,0,1-1.35-2.26,9,9,0,0,1-.47-3,8.9,8.9,0,0,1,.47-3,6.64,6.64,0,0,1,1.35-2.26,5.79,5.79,0,0,1,2.12-1.44A7.49,7.49,0,0,1,159.67,164.26Zm0,12.26a3.43,3.43,0,0,0,3-1.33,7.73,7.73,0,0,0,0-7.5,3.41,3.41,0,0,0-3-1.33,3.45,3.45,0,0,0-3,1.33,7.66,7.66,0,0,0,0,7.5A3.48,3.48,0,0,0,159.67,176.52Z"/><path class="cls-1" d="M172.08,158.17v20.24h-2.69V158.17Z"/><path class="cls-1" d="M175.53,166.43a7.66,7.66,0,0,1,5.53-2.21,5.37,5.37,0,0,1,2.11.39,4.31,4.31,0,0,1,1.55,1.09,4.58,4.58,0,0,1,.95,1.67,6.69,6.69,0,0,1,.32,2.15v8.89H184.8a1.07,1.07,0,0,1-.6-.13.89.89,0,0,1-.33-.49l-.29-1.22a11.29,11.29,0,0,1-1.06.87,6.68,6.68,0,0,1-1.09.65,5.73,5.73,0,0,1-1.21.4,6.9,6.9,0,0,1-1.42.14,5.19,5.19,0,0,1-1.55-.23,3.39,3.39,0,0,1-1.25-.69,3.28,3.28,0,0,1-.85-1.17,4.09,4.09,0,0,1-.3-1.63,3,3,0,0,1,.44-1.58,4.05,4.05,0,0,1,1.46-1.37,9.12,9.12,0,0,1,2.63-1,19.54,19.54,0,0,1,4-.44v-1a3.51,3.51,0,0,0-.67-2.35,2.46,2.46,0,0,0-2-.79,4.48,4.48,0,0,0-1.48.22,5.71,5.71,0,0,0-1,.49l-.76.49a1.18,1.18,0,0,1-.66.22.78.78,0,0,1-.48-.15,1.22,1.22,0,0,1-.32-.36Zm7.84,5.79a21.46,21.46,0,0,0-2.77.26,7.64,7.64,0,0,0-1.85.53,2.49,2.49,0,0,0-1,.77,1.63,1.63,0,0,0-.32,1,2.21,2.21,0,0,0,.17.89,1.73,1.73,0,0,0,1.16,1,3.37,3.37,0,0,0,.86.11,5,5,0,0,0,1.13-.12,4.84,4.84,0,0,0,1-.35,4.69,4.69,0,0,0,.86-.56,7.06,7.06,0,0,0,.81-.75Z"/><path class="cls-1" d="M192.11,167.15a6.42,6.42,0,0,1,1.61-2.15,3.48,3.48,0,0,1,2.28-.78,3.44,3.44,0,0,1,.86.1,2.13,2.13,0,0,1,.7.31l-.17,2a.45.45,0,0,1-.46.37,3.41,3.41,0,0,1-.57-.08,4.33,4.33,0,0,0-.83-.08,3.26,3.26,0,0,0-1.13.19,2.65,2.65,0,0,0-.89.55,3.7,3.7,0,0,0-.69.89,8.41,8.41,0,0,0-.56,1.2v8.72h-2.68V164.48h1.54a.85.85,0,0,1,.6.16,1,1,0,0,1,.22.55Z"/><path class="cls-1" d="M218.75,176l0,2.37h-12.2V158.72h12.2v2.37h-9.27v6.24h7.46v2.29h-7.46V176Z"/><path class="cls-1" d="M224,166.41a11.13,11.13,0,0,1,1-.88,5.83,5.83,0,0,1,1-.67,5.29,5.29,0,0,1,1.19-.44,5.48,5.48,0,0,1,1.37-.16,5.09,5.09,0,0,1,2,.38,4.07,4.07,0,0,1,1.46,1.08,4.69,4.69,0,0,1,.89,1.67,7.21,7.21,0,0,1,.3,2.15v8.87h-2.69v-8.87a3.56,3.56,0,0,0-.68-2.33,2.58,2.58,0,0,0-2.1-.83,4,4,0,0,0-1.92.49,6.65,6.65,0,0,0-1.67,1.32v10.22h-2.67V164.48h1.6a.65.65,0,0,1,.7.53Z"/><path class="cls-1" d="M246.55,167.08a1.36,1.36,0,0,1-.24.24.55.55,0,0,1-.34.09.77.77,0,0,1-.46-.17,6.59,6.59,0,0,0-.6-.37,5.83,5.83,0,0,0-.88-.37,4.15,4.15,0,0,0-1.27-.17,4,4,0,0,0-1.74.36,3.24,3.24,0,0,0-1.25,1,4.49,4.49,0,0,0-.76,1.6,7.82,7.82,0,0,0-.26,2.13,8,8,0,0,0,.27,2.17,4.83,4.83,0,0,0,.78,1.61,3.28,3.28,0,0,0,1.24,1,3.69,3.69,0,0,0,1.61.34,4.11,4.11,0,0,0,1.43-.21,4.47,4.47,0,0,0,.93-.46,6.68,6.68,0,0,0,.62-.46.76.76,0,0,1,.51-.21.57.57,0,0,1,.5.24l.77,1a5.3,5.3,0,0,1-1.07,1,6,6,0,0,1-1.27.67,7.34,7.34,0,0,1-1.41.39,9.14,9.14,0,0,1-1.48.12,6.21,6.21,0,0,1-2.44-.48,5.56,5.56,0,0,1-2-1.4,6.71,6.71,0,0,1-1.31-2.25,9,9,0,0,1-.48-3,9.43,9.43,0,0,1,.43-2.87,6.43,6.43,0,0,1,1.28-2.26,5.76,5.76,0,0,1,2.08-1.5,7,7,0,0,1,2.82-.54,6.71,6.71,0,0,1,2.63.48,6.3,6.3,0,0,1,2,1.36Z"/><path class="cls-1" d="M249.55,166.43a7.66,7.66,0,0,1,5.53-2.21,5.4,5.4,0,0,1,2.11.39,4.31,4.31,0,0,1,1.55,1.09,4.73,4.73,0,0,1,.95,1.67,7,7,0,0,1,.32,2.15v8.89h-1.19a1.07,1.07,0,0,1-.6-.13.89.89,0,0,1-.33-.49l-.29-1.22a11.29,11.29,0,0,1-1.06.87,7.13,7.13,0,0,1-1.09.65,5.92,5.92,0,0,1-1.21.4,7,7,0,0,1-1.43.14,5.12,5.12,0,0,1-1.54-.23,3.39,3.39,0,0,1-1.25-.69,3.28,3.28,0,0,1-.85-1.17,4.08,4.08,0,0,1-.31-1.63,3.06,3.06,0,0,1,.45-1.58,4.1,4.1,0,0,1,1.45-1.37,9.31,9.31,0,0,1,2.64-1,19.54,19.54,0,0,1,4-.44v-1a3.51,3.51,0,0,0-.67-2.35,2.47,2.47,0,0,0-2-.79,4.48,4.48,0,0,0-1.48.22,6.19,6.19,0,0,0-1,.49l-.75.49a1.21,1.21,0,0,1-.66.22.76.76,0,0,1-.48-.15,1.22,1.22,0,0,1-.32-.36Zm7.84,5.79a21.46,21.46,0,0,0-2.77.26,7.51,7.51,0,0,0-1.85.53,2.53,2.53,0,0,0-1,.77,1.69,1.69,0,0,0-.31,1,2.21,2.21,0,0,0,.17.89,1.62,1.62,0,0,0,.47.62,1.73,1.73,0,0,0,.69.35,3.32,3.32,0,0,0,.86.11,5,5,0,0,0,1.13-.12,4.84,4.84,0,0,0,1-.35,4.69,4.69,0,0,0,.86-.56,7.06,7.06,0,0,0,.81-.75Z"/><path class="cls-1" d="M266.14,166.56a8.43,8.43,0,0,1,.94-.95,6,6,0,0,1,1.07-.74,5.42,5.42,0,0,1,1.23-.48,5.69,5.69,0,0,1,1.39-.17,4.89,4.89,0,0,1,2.16.46,4.57,4.57,0,0,1,1.66,1.38,6.7,6.7,0,0,1,1.06,2.23,11.35,11.35,0,0,1,.37,3.06,9.44,9.44,0,0,1-.41,2.87,7.08,7.08,0,0,1-1.2,2.3,5.51,5.51,0,0,1-4.4,2.08,5.11,5.11,0,0,1-2.14-.41,5,5,0,0,1-1.59-1.15v6H263.6v-18.6h1.61a.66.66,0,0,1,.7.53Zm.14,8.42a3.76,3.76,0,0,0,1.42,1.21,4,4,0,0,0,1.7.34,3.37,3.37,0,0,0,2.85-1.32,6.3,6.3,0,0,0,1-3.86,9.86,9.86,0,0,0-.23-2.27,4.29,4.29,0,0,0-.66-1.54,2.61,2.61,0,0,0-1.06-.87,3.45,3.45,0,0,0-1.43-.29,3.8,3.8,0,0,0-2,.53,5.61,5.61,0,0,0-1.58,1.48Z"/><path class="cls-1" d="M287.24,166.88a.71.71,0,0,1-.23.25.63.63,0,0,1-.32.08,1,1,0,0,1-.49-.15c-.17-.1-.39-.21-.64-.33a6.28,6.28,0,0,0-.88-.33,4.35,4.35,0,0,0-1.21-.15,3.86,3.86,0,0,0-1.05.14,2.5,2.5,0,0,0-.8.4,1.82,1.82,0,0,0-.51.6,1.63,1.63,0,0,0-.18.75,1.26,1.26,0,0,0,.31.86,2.65,2.65,0,0,0,.81.59,6.77,6.77,0,0,0,1.14.45l1.3.42a12,12,0,0,1,1.3.5,4.36,4.36,0,0,1,1.14.7,3.3,3.3,0,0,1,.81,1,3.06,3.06,0,0,1,.31,1.44,4.71,4.71,0,0,1-.35,1.81,3.94,3.94,0,0,1-1,1.43,4.88,4.88,0,0,1-1.68.95,7.3,7.3,0,0,1-2.29.34,7.19,7.19,0,0,1-2.66-.48,6.78,6.78,0,0,1-2-1.22l.63-1a.79.79,0,0,1,.27-.3.92.92,0,0,1,.44-.1,1,1,0,0,1,.54.19,7.78,7.78,0,0,0,.66.42,4.53,4.53,0,0,0,.93.41,4.11,4.11,0,0,0,1.37.19,3.83,3.83,0,0,0,1.19-.17,2.42,2.42,0,0,0,.84-.47,1.82,1.82,0,0,0,.5-.68,2,2,0,0,0,.17-.81,1.34,1.34,0,0,0-.31-.91,2.6,2.6,0,0,0-.81-.62,6,6,0,0,0-1.14-.46c-.43-.12-.87-.26-1.32-.41a12.34,12.34,0,0,1-1.32-.5,4.94,4.94,0,0,1-1.14-.73,3.48,3.48,0,0,1-.81-1.07,3.55,3.55,0,0,1-.31-1.54,3.6,3.6,0,0,1,.34-1.54,3.86,3.86,0,0,1,1-1.31,4.82,4.82,0,0,1,1.58-.89,6.16,6.16,0,0,1,2.14-.34,6.88,6.88,0,0,1,2.51.44,5.74,5.74,0,0,1,1.91,1.2Z"/><path class="cls-1" d="M302.53,164.48v13.93h-1.61a.69.69,0,0,1-.71-.54l-.19-1.39a9.69,9.69,0,0,1-.95.87A5.62,5.62,0,0,1,298,178a5.58,5.58,0,0,1-2.54.6,4.93,4.93,0,0,1-2-.39,4,4,0,0,1-1.46-1.07,4.69,4.69,0,0,1-.89-1.67,7.25,7.25,0,0,1-.3-2.15v-8.87h2.69v8.87a3.56,3.56,0,0,0,.68,2.32,2.55,2.55,0,0,0,2.1.83,4,4,0,0,0,1.92-.48,6.65,6.65,0,0,0,1.67-1.34v-10.2Z"/><path class="cls-1" d="M309,158.17v20.24h-2.69V158.17Z"/><path class="cls-1" d="M312.47,166.43a7.66,7.66,0,0,1,5.52-2.21,5.33,5.33,0,0,1,2.11.39,4.31,4.31,0,0,1,1.55,1.09,4.58,4.58,0,0,1,1,1.67,6.69,6.69,0,0,1,.33,2.15v8.89h-1.2a1.11,1.11,0,0,1-.6-.13.89.89,0,0,1-.33-.49l-.29-1.22a10.07,10.07,0,0,1-1.05.87,7.13,7.13,0,0,1-1.09.65,6,6,0,0,1-1.22.4,6.9,6.9,0,0,1-1.42.14,5.12,5.12,0,0,1-1.54-.23,3.51,3.51,0,0,1-1.26-.69,3.25,3.25,0,0,1-.84-1.17,3.92,3.92,0,0,1-.31-1.63,3.06,3.06,0,0,1,.45-1.58,4,4,0,0,1,1.45-1.37,9.24,9.24,0,0,1,2.63-1,19.65,19.65,0,0,1,4-.44v-1a3.56,3.56,0,0,0-.67-2.35,2.48,2.48,0,0,0-2-.79,4.46,4.46,0,0,0-1.47.22,5.83,5.83,0,0,0-1,.49c-.29.18-.54.34-.75.49a1.24,1.24,0,0,1-.67.22.75.75,0,0,1-.47-.15,1.22,1.22,0,0,1-.32-.36Zm7.84,5.79a21.29,21.29,0,0,0-2.77.26,7.38,7.38,0,0,0-1.85.53,2.46,2.46,0,0,0-1,.77,1.7,1.7,0,0,0-.32,1,2.21,2.21,0,0,0,.17.89,1.73,1.73,0,0,0,.47.62,1.88,1.88,0,0,0,.69.35,3.45,3.45,0,0,0,.87.11,5,5,0,0,0,1.13-.12,5.33,5.33,0,0,0,1-.35,5.06,5.06,0,0,0,.86-.56,9.23,9.23,0,0,0,.81-.75Z"/><path class="cls-1" d="M330.7,178.63a3.46,3.46,0,0,1-2.6-.95,3.72,3.72,0,0,1-.91-2.7v-8.33h-1.62a.53.53,0,0,1-.55-.58V165l2.27-.32.6-4.15a.71.71,0,0,1,.21-.37.67.67,0,0,1,.41-.13h1.35v4.68h3.95v2h-3.95v8.15a1.67,1.67,0,0,0,.41,1.23,1.39,1.39,0,0,0,1,.4,2,2,0,0,0,.64-.09,4.09,4.09,0,0,0,.46-.21l.33-.22a.45.45,0,0,1,.25-.09.33.33,0,0,1,.21.06.92.92,0,0,1,.16.2l.79,1.29a4.69,4.69,0,0,1-1.56.93A5.47,5.47,0,0,1,330.7,178.63Z"/><path class="cls-1" d="M347.62,176.42a5.14,5.14,0,0,1-1.14,1,6.48,6.48,0,0,1-1.37.68,8.48,8.48,0,0,1-1.5.39,10.05,10.05,0,0,1-1.53.12,7.08,7.08,0,0,1-2.67-.49,6,6,0,0,1-2.12-1.42,6.45,6.45,0,0,1-1.4-2.33,9.55,9.55,0,0,1-.5-3.2,7.94,7.94,0,0,1,.45-2.71,6.34,6.34,0,0,1,1.3-2.19,6,6,0,0,1,2.06-1.47,6.87,6.87,0,0,1,2.74-.53,6.38,6.38,0,0,1,2.35.42,5.21,5.21,0,0,1,1.86,1.21,5.74,5.74,0,0,1,1.23,2,7.39,7.39,0,0,1,.44,2.66,1.74,1.74,0,0,1-.13.83.56.56,0,0,1-.51.21h-9.13a7.36,7.36,0,0,0,.36,2.18,4.43,4.43,0,0,0,.87,1.54,3.47,3.47,0,0,0,1.32.92,4.65,4.65,0,0,0,1.71.3,5,5,0,0,0,1.54-.21,6.84,6.84,0,0,0,1.13-.44,8.53,8.53,0,0,0,.79-.45,1.09,1.09,0,0,1,.57-.2.6.6,0,0,1,.51.24Zm-2.21-6.53a4.3,4.3,0,0,0-.23-1.46,3.36,3.36,0,0,0-.66-1.17,3.09,3.09,0,0,0-1.07-.77,3.64,3.64,0,0,0-1.45-.27,3.58,3.58,0,0,0-2.66,1,4.71,4.71,0,0,0-1.22,2.7Z"/><path class="cls-1" d="M358.92,166.88a.83.83,0,0,1-.24.25.59.59,0,0,1-.31.08,1,1,0,0,1-.49-.15l-.64-.33a6.44,6.44,0,0,0-.89-.33,4.3,4.3,0,0,0-1.21-.15,3.74,3.74,0,0,0-1,.14,2.56,2.56,0,0,0-.81.4,1.79,1.79,0,0,0-.5.6,1.63,1.63,0,0,0-.18.75,1.21,1.21,0,0,0,.31.86,2.43,2.43,0,0,0,.81.59,7,7,0,0,0,1.13.45l1.31.42a12.88,12.88,0,0,1,1.3.5,4.72,4.72,0,0,1,1.14.7,3.3,3.3,0,0,1,.81,1,3.19,3.19,0,0,1,.3,1.44,4.53,4.53,0,0,1-.35,1.81,3.91,3.91,0,0,1-1,1.43,5.08,5.08,0,0,1-1.68.95,7.3,7.3,0,0,1-2.29.34,7.19,7.19,0,0,1-2.66-.48,6.72,6.72,0,0,1-2.05-1.22l.64-1a.79.79,0,0,1,.27-.3.92.92,0,0,1,.44-.1,1,1,0,0,1,.53.19c.19.13.4.27.66.42a5.07,5.07,0,0,0,.93.41,4.19,4.19,0,0,0,1.37.19,3.9,3.9,0,0,0,1.2-.17,2.42,2.42,0,0,0,.84-.47,1.94,1.94,0,0,0,.5-.68,2,2,0,0,0,.17-.81,1.39,1.39,0,0,0-.31-.91,2.72,2.72,0,0,0-.81-.62,6.41,6.41,0,0,0-1.15-.46c-.43-.12-.87-.26-1.31-.41a12.34,12.34,0,0,1-1.32-.5,4.73,4.73,0,0,1-1.14-.73,3.19,3.19,0,0,1-.81-1.07,3.41,3.41,0,0,1-.31-1.54,3.74,3.74,0,0,1,.33-1.54,3.89,3.89,0,0,1,1-1.31,4.77,4.77,0,0,1,1.57-.89,6.26,6.26,0,0,1,2.15-.34,6.83,6.83,0,0,1,2.5.44,5.65,5.65,0,0,1,1.91,1.2Z"/><path class="cls-1" d="M363.82,178.41a1.72,1.72,0,0,1-.68-.14,1.66,1.66,0,0,1-.53-.38,1.71,1.71,0,0,1-.35-.56,2.09,2.09,0,0,1-.12-.72,1.59,1.59,0,0,1,.12-.62,1.54,1.54,0,0,1,.35-.52,1.66,1.66,0,0,1,.54-.34,1.78,1.78,0,0,1,.7-.14,1.94,1.94,0,0,1,.78.16,1.61,1.61,0,0,1,.56.44,1.9,1.9,0,0,1,.33.65,2.58,2.58,0,0,1,.11.8,5.14,5.14,0,0,1-.18,1.3,6.13,6.13,0,0,1-.52,1.36,7.24,7.24,0,0,1-.85,1.3,7.93,7.93,0,0,1-1.15,1.17l-.45-.43a.57.57,0,0,1-.21-.43.3.3,0,0,1,.07-.19,1,1,0,0,1,.15-.2l.36-.4a3.85,3.85,0,0,0,.43-.57,5.28,5.28,0,0,0,.4-.71,3.84,3.84,0,0,0,.27-.83Z"/><path class="cls-1" d="M388.58,176v2.37h-12.2V158.72h12.2v2.37H379.3v6.24h7.46v2.29H379.3V176Z"/><path class="cls-1" d="M408.42,158.72l-8,19.69H397.8l-8-19.69h2.33a1,1,0,0,1,.62.19,1.34,1.34,0,0,1,.37.5l5.32,13.38c.13.33.25.69.37,1.08s.24.8.34,1.23q.14-.65.3-1.23a11.38,11.38,0,0,1,.36-1.08l5.3-13.38a1,1,0,0,1,.35-.48,1,1,0,0,1,.63-.21Z"/><path class="cls-1" d="M425.6,178.41h-2.25a1.07,1.07,0,0,1-.63-.19,1.22,1.22,0,0,1-.36-.5l-1.74-4.56h-8.68l-1.74,4.56a1.12,1.12,0,0,1-.35.48,1,1,0,0,1-.63.21H407l7.84-19.69h2.95Zm-5.77-7.34-2.92-7.63a16.81,16.81,0,0,1-.63-2c-.1.4-.21.76-.31,1.1s-.21.64-.31.9l-2.91,7.61Z"/><path class="cls-1" d="M428.71,178.41a1.72,1.72,0,0,1-.68-.14,1.66,1.66,0,0,1-.53-.38,1.71,1.71,0,0,1-.35-.56,2.09,2.09,0,0,1-.12-.72,1.59,1.59,0,0,1,.12-.62,1.54,1.54,0,0,1,.35-.52,1.66,1.66,0,0,1,.54-.34,1.75,1.75,0,0,1,.7-.14,1.86,1.86,0,0,1,.77.16,1.56,1.56,0,0,1,.57.44,1.9,1.9,0,0,1,.33.65,2.92,2.92,0,0,1,.11.8,5.14,5.14,0,0,1-.18,1.3,6.67,6.67,0,0,1-.52,1.36A7.82,7.82,0,0,1,429,181a8.46,8.46,0,0,1-1.15,1.17l-.45-.43a.57.57,0,0,1-.21-.43.35.35,0,0,1,.06-.19,1.56,1.56,0,0,1,.16-.2l.36-.4a3.85,3.85,0,0,0,.43-.57,6.65,6.65,0,0,0,.4-.71,3.84,3.84,0,0,0,.27-.83Z"/><path class="cls-1" d="M447.22,158.72a11.1,11.1,0,0,1,3.29.44,6.42,6.42,0,0,1,2.32,1.24,4.92,4.92,0,0,1,1.36,1.94,6.81,6.81,0,0,1,.45,2.52,6.62,6.62,0,0,1-.48,2.55,5.48,5.48,0,0,1-1.41,2,6.57,6.57,0,0,1-2.33,1.3,10.38,10.38,0,0,1-3.2.46h-3v7.25h-2.92V158.72Zm0,10.13a5.8,5.8,0,0,0,1.95-.29,3.86,3.86,0,0,0,1.42-.81,3.31,3.31,0,0,0,.85-1.26,4.46,4.46,0,0,0,.29-1.63,3.63,3.63,0,0,0-1.12-2.82,4.83,4.83,0,0,0-3.39-1h-3v7.84Z"/><path class="cls-1" d="M476.19,168.56a11.27,11.27,0,0,1-.71,4.06,9.37,9.37,0,0,1-2,3.18,8.94,8.94,0,0,1-3.09,2.07,11.1,11.1,0,0,1-8,0,8.8,8.8,0,0,1-3.08-2.07,9.55,9.55,0,0,1-2-3.18,11.91,11.91,0,0,1,0-8.1,9.49,9.49,0,0,1,2-3.19,9,9,0,0,1,3.08-2.08,11,11,0,0,1,8,0,9.1,9.1,0,0,1,3.09,2.08,9.32,9.32,0,0,1,2,3.19A11.24,11.24,0,0,1,476.19,168.56Zm-3,0a9.65,9.65,0,0,0-.48-3.15,6.73,6.73,0,0,0-1.36-2.37,6,6,0,0,0-2.14-1.5,7.83,7.83,0,0,0-5.61,0,6,6,0,0,0-2.15,1.5,6.75,6.75,0,0,0-1.37,2.37,10.61,10.61,0,0,0,0,6.31,6.75,6.75,0,0,0,1.37,2.37,6,6,0,0,0,2.15,1.49,8,8,0,0,0,5.61,0,6,6,0,0,0,2.14-1.49,6.73,6.73,0,0,0,1.36-2.37A9.63,9.63,0,0,0,473.2,168.56Z"/><path class="cls-1" d="M492.06,176v2.37h-12.2V158.72h12.2v2.37h-9.27v6.24h7.46v2.29h-7.46V176Z"/><path class="cls-1" d="M496.33,178.41a1.65,1.65,0,0,1-.68-.14,1.71,1.71,0,0,1-.54-.38,1.89,1.89,0,0,1-.35-.56,2.09,2.09,0,0,1-.12-.72,1.59,1.59,0,0,1,.12-.62,1.7,1.7,0,0,1,.35-.52,1.82,1.82,0,0,1,.55-.34,1.75,1.75,0,0,1,.7-.14,1.86,1.86,0,0,1,.77.16,1.61,1.61,0,0,1,.56.44,1.92,1.92,0,0,1,.34.65,2.92,2.92,0,0,1,.11.8,5.14,5.14,0,0,1-.18,1.3,6.67,6.67,0,0,1-.52,1.36,7.82,7.82,0,0,1-.85,1.3,8.46,8.46,0,0,1-1.15,1.17l-.46-.43a.6.6,0,0,1-.2-.43.35.35,0,0,1,.06-.19.74.74,0,0,1,.16-.2l.35-.4a4.71,4.71,0,0,0,.44-.57,5.26,5.26,0,0,0,.39-.71,3,3,0,0,0,.27-.83Z"/><path class="cls-1" d="M521.09,176l0,2.37h-12.2V158.72h12.2v2.37h-9.26v6.24h7.45v2.29h-7.45V176Z"/><path class="cls-1" d="M530.66,158.72a11.1,11.1,0,0,1,3.29.44,6.37,6.37,0,0,1,2.31,1.24,4.85,4.85,0,0,1,1.37,1.94,7.29,7.29,0,0,1,0,5.07,5.63,5.63,0,0,1-1.42,2,6.44,6.44,0,0,1-2.32,1.3,10.42,10.42,0,0,1-3.2.46h-3v7.25h-2.92V158.72Zm0,10.13a5.8,5.8,0,0,0,2-.29,3.9,3.9,0,0,0,1.41-.81,3.33,3.33,0,0,0,.86-1.26,4.46,4.46,0,0,0,.29-1.63,3.63,3.63,0,0,0-1.12-2.82,4.84,4.84,0,0,0-3.39-1h-3v7.84Z"/><path class="cls-1" d="M553.5,176l0,2.37h-12.2V158.72h12.2v2.37h-9.26v6.24h7.45v2.29h-7.45V176Z"/><path class="cls-1" d="M567,161.09v6.6h7.9v2.37H567v8.35H564V158.72h12.2v2.37Z"/><path class="cls-1" d="M582.23,160.17a1.71,1.71,0,0,1-.15.71,2,2,0,0,1-.4.59,1.85,1.85,0,0,1-1.31.54,1.82,1.82,0,0,1-.7-.14,1.94,1.94,0,0,1-.58-.4,2,2,0,0,1-.4-.59,1.7,1.7,0,0,1-.14-.71,1.78,1.78,0,0,1,.14-.72,2,2,0,0,1,.4-.59,1.91,1.91,0,0,1,.58-.39,1.66,1.66,0,0,1,.7-.15,1.74,1.74,0,0,1,.71.15,1.88,1.88,0,0,1,.6.39,2,2,0,0,1,.4.59A1.79,1.79,0,0,1,582.23,160.17Zm-.5,4.31v13.93h-2.68V164.48Z"/><path class="cls-1" d="M588.35,158.17v20.24h-2.69V158.17Z"/><path class="cls-1" d="M592.16,178.41V164.48h1.6a.65.65,0,0,1,.7.53l.19,1.33a7.5,7.5,0,0,1,1.71-1.5,4.08,4.08,0,0,1,2.2-.58,3.26,3.26,0,0,1,2.25.76,4.34,4.34,0,0,1,1.26,2.06,4.38,4.38,0,0,1,.78-1.27,4.44,4.44,0,0,1,1.07-.88,4.76,4.76,0,0,1,1.26-.51,5.54,5.54,0,0,1,1.35-.16,5.34,5.34,0,0,1,2,.35,3.82,3.82,0,0,1,1.47,1,4.39,4.39,0,0,1,.92,1.66,7.41,7.41,0,0,1,.32,2.25v8.87h-2.69v-8.87a3.57,3.57,0,0,0-.68-2.36,2.46,2.46,0,0,0-2-.8,3.15,3.15,0,0,0-1.1.2,2.77,2.77,0,0,0-.91.6,2.83,2.83,0,0,0-.62,1,3.82,3.82,0,0,0-.22,1.37v8.87h-2.69v-8.87a3.67,3.67,0,0,0-.64-2.39,2.34,2.34,0,0,0-1.9-.77,3,3,0,0,0-1.6.46,5.2,5.2,0,0,0-1.36,1.23v10.34Z"/><path class="cls-1" d="M623,166.88a.71.71,0,0,1-.23.25.59.59,0,0,1-.31.08,1,1,0,0,1-.49-.15c-.18-.1-.39-.21-.65-.33a5.84,5.84,0,0,0-.88-.33,4.3,4.3,0,0,0-1.21-.15,3.74,3.74,0,0,0-1,.14,2.56,2.56,0,0,0-.81.4,1.68,1.68,0,0,0-.5.6,1.63,1.63,0,0,0-.18.75,1.21,1.21,0,0,0,.31.86,2.43,2.43,0,0,0,.81.59A7,7,0,0,0,619,170l1.31.42a12.88,12.88,0,0,1,1.3.5,4.72,4.72,0,0,1,1.14.7,3.13,3.13,0,0,1,.8,1,3.06,3.06,0,0,1,.31,1.44,4.53,4.53,0,0,1-.35,1.81,3.91,3.91,0,0,1-1,1.43,5.08,5.08,0,0,1-1.68.95,7.35,7.35,0,0,1-2.29.34,7.19,7.19,0,0,1-2.66-.48,6.72,6.72,0,0,1-2.05-1.22l.63-1a.73.73,0,0,1,.72-.4,1,1,0,0,1,.53.19,7.78,7.78,0,0,0,.66.42,5.07,5.07,0,0,0,.93.41,4.19,4.19,0,0,0,1.37.19,3.9,3.9,0,0,0,1.2-.17,2.52,2.52,0,0,0,.84-.47,1.94,1.94,0,0,0,.5-.68,2,2,0,0,0,.16-.81,1.39,1.39,0,0,0-.3-.91,2.72,2.72,0,0,0-.81-.62,6.41,6.41,0,0,0-1.15-.46c-.43-.12-.87-.26-1.31-.41a12.34,12.34,0,0,1-1.32-.5,4.73,4.73,0,0,1-1.14-.73,3.19,3.19,0,0,1-.81-1.07,3.41,3.41,0,0,1-.31-1.54,3.74,3.74,0,0,1,.33-1.54,3.89,3.89,0,0,1,1-1.31,4.77,4.77,0,0,1,1.57-.89,6.22,6.22,0,0,1,2.15-.34,6.83,6.83,0,0,1,2.5.44,5.65,5.65,0,0,1,1.91,1.2Z"/><path class="cls-1" d="M628.41,157.4a6.41,6.41,0,0,1,.81,2.11,6.16,6.16,0,0,1,0,2.18,6.06,6.06,0,0,1-.71,2.07,6.59,6.59,0,0,1-1.45,1.77l-.83-.52a.37.37,0,0,1-.2-.36.63.63,0,0,1,.15-.34,3.82,3.82,0,0,0,.6-1,5,5,0,0,0,.33-1.33,4.94,4.94,0,0,0,0-1.48,4.67,4.67,0,0,0-.58-1.51.67.67,0,0,1-.11-.56.58.58,0,0,1,.36-.36Z"/><path class="cls-1" d="M158.05,83.08a14,14,0,0,1-1,5.4,12.7,12.7,0,0,1-2.83,4.27,13,13,0,0,1-4.42,2.81,15.61,15.61,0,0,1-5.72,1H133.6V69.62h10.47a15.41,15.41,0,0,1,5.72,1,13.16,13.16,0,0,1,4.42,2.81A12.37,12.37,0,0,1,157,77.71,14,14,0,0,1,158.05,83.08Zm-6.4,0a11.86,11.86,0,0,0-.51-3.6,7.88,7.88,0,0,0-1.49-2.73A6.42,6.42,0,0,0,147.27,75a8.08,8.08,0,0,0-3.2-.6h-4.18V91.76h4.18a8.08,8.08,0,0,0,3.2-.6,6.54,6.54,0,0,0,2.38-1.72,8,8,0,0,0,1.49-2.73A12,12,0,0,0,151.65,83.08Z"/><path class="cls-1" d="M166.17,80.35a8,8,0,0,1,2-2.44,4.21,4.21,0,0,1,2.66-.89,3.43,3.43,0,0,1,2.11.61l-.37,4.21a.88.88,0,0,1-.31.56,1,1,0,0,1-.58.15l-.39,0-.5,0-.53,0-.49,0a2.88,2.88,0,0,0-2,.67,5.25,5.25,0,0,0-1.27,1.85V96.57h-5.73V77.39h3.4a2.88,2.88,0,0,1,.71.07,1.34,1.34,0,0,1,.48.23,1.08,1.08,0,0,1,.3.42,3.46,3.46,0,0,1,.18.63Z"/><path class="cls-1" d="M172.68,93.66a3.05,3.05,0,0,1,.25-1.24,3.28,3.28,0,0,1,.68-1,3.46,3.46,0,0,1,1-.67,3.26,3.26,0,0,1,1.29-.25,3.18,3.18,0,0,1,1.28.25,3.51,3.51,0,0,1,1,.67,3.31,3.31,0,0,1,.69,1,3.23,3.23,0,0,1,0,2.49,3.12,3.12,0,0,1-.69,1,3.29,3.29,0,0,1-1,.66,3.18,3.18,0,0,1-1.28.25,3.37,3.37,0,0,1-2.32-.91,3.1,3.1,0,0,1-.68-1A3.07,3.07,0,0,1,172.68,93.66Z"/><path class="cls-1" d="M215,69.62V96.57h-6.29V85.17H197.8v11.4h-6.29V69.62h6.29V80.88h10.94V69.62Z"/><path class="cls-1" d="M244.42,96.57h-4.85a2.12,2.12,0,0,1-1.31-.38,2.59,2.59,0,0,1-.76-1l-1.59-4.7H225.67l-1.59,4.7a2.34,2.34,0,0,1-.73.93,2.06,2.06,0,0,1-1.31.42h-4.88l10.43-26.95H234Zm-9.93-10.3L232,78.89c-.18-.47-.38-1-.59-1.66s-.42-1.32-.63-2.06c-.18.75-.38,1.45-.59,2.09s-.41,1.19-.59,1.66l-2.48,7.35Z"/><path class="cls-1" d="M270.07,69.62V96.57h-3.25a3,3,0,0,1-1.22-.23,3.16,3.16,0,0,1-1-.81l-12.7-16.07c0,.48.08,1,.1,1.4s0,.87,0,1.26V96.57h-5.51V69.62h3.29a4.36,4.36,0,0,1,.68,0,1.53,1.53,0,0,1,.5.14,1.58,1.58,0,0,1,.43.28,6.17,6.17,0,0,1,.46.5l12.82,16.18c-.06-.51-.11-1-.13-1.5s0-1,0-1.38V69.62Z"/><path class="cls-1" d="M290.18,75.09a2.33,2.33,0,0,1-.59.67,1.26,1.26,0,0,1-.78.22,1.92,1.92,0,0,1-.92-.27l-1.11-.6a9.34,9.34,0,0,0-1.41-.6,5.66,5.66,0,0,0-1.82-.27,3.87,3.87,0,0,0-2.61.75,2.54,2.54,0,0,0-.86,2,1.86,1.86,0,0,0,.52,1.35,4.33,4.33,0,0,0,1.35.92,13.78,13.78,0,0,0,1.93.71c.72.22,1.46.46,2.21.73a18.48,18.48,0,0,1,2.21.93A7.3,7.3,0,0,1,290.22,83a6.3,6.3,0,0,1,1.36,2,7.16,7.16,0,0,1,.52,2.88,9.38,9.38,0,0,1-.65,3.49,8.06,8.06,0,0,1-1.88,2.84,8.66,8.66,0,0,1-3,1.91,11.41,11.41,0,0,1-4.1.69,12.64,12.64,0,0,1-2.56-.26,14.3,14.3,0,0,1-2.52-.73,13.61,13.61,0,0,1-2.3-1.12,9.77,9.77,0,0,1-1.86-1.44l1.85-2.92a1.75,1.75,0,0,1,.58-.53,1.53,1.53,0,0,1,.79-.21,2.12,2.12,0,0,1,1.11.35l1.28.78a10,10,0,0,0,1.64.77,6,6,0,0,0,2.18.36,4.15,4.15,0,0,0,2.64-.75,2.85,2.85,0,0,0,1-2.38,2.25,2.25,0,0,0-.52-1.53,3.87,3.87,0,0,0-1.36-1,12.8,12.8,0,0,0-1.91-.69c-.72-.2-1.45-.42-2.21-.66A16.54,16.54,0,0,1,278,84a7,7,0,0,1-1.91-1.39,6.54,6.54,0,0,1-1.36-2.15,8.38,8.38,0,0,1-.52-3.17,7.61,7.61,0,0,1,2.41-5.53,8.81,8.81,0,0,1,2.9-1.8,10.74,10.74,0,0,1,3.94-.68,14.6,14.6,0,0,1,2.41.2,12.77,12.77,0,0,1,2.23.57,12.23,12.23,0,0,1,2,.91,9.2,9.2,0,0,1,1.64,1.19Z"/><path class="cls-1" d="M341,69.62l-8.32,26.95h-5.66L322,79.87c-.09-.26-.19-.55-.27-.86s-.18-.65-.26-1c-.09.34-.18.67-.26,1s-.18.6-.28.86l-5.14,16.7h-5.66l-8.32-26.95H307a2.34,2.34,0,0,1,1.36.37,1.7,1.7,0,0,1,.71,1L312.81,85c.11.44.22.92.33,1.45s.23,1.07.34,1.63a21.07,21.07,0,0,1,.81-3.08L318.66,71a1.87,1.87,0,0,1,.71-.93,2.08,2.08,0,0,1,1.32-.42h1.85a2.12,2.12,0,0,1,1.31.38,2.42,2.42,0,0,1,.76,1L328.94,85a19.34,19.34,0,0,1,.81,2.94c.1-.56.2-1.08.31-1.57s.21-.94.32-1.37L334.08,71a1.74,1.74,0,0,1,.7-.94,2.21,2.21,0,0,1,1.33-.41Z"/><path class="cls-1" d="M350,74.43v6.29h8.47v4.62H350v6.42h11.06v4.81H343.71V69.62h17.35v4.81Z"/><path class="cls-1" d="M387,96.57H381.3A2.4,2.4,0,0,1,379,95.38l-4.48-7.82a1.81,1.81,0,0,0-1.81-1h-1.59v10h-6.25V69.62h8.77a18.05,18.05,0,0,1,5,.6A9.49,9.49,0,0,1,382,71.89a6.38,6.38,0,0,1,1.89,2.54,8.26,8.26,0,0,1,.59,3.18,8.4,8.4,0,0,1-.35,2.48,7.75,7.75,0,0,1-1,2.15,7.9,7.9,0,0,1-1.7,1.77,8.76,8.76,0,0,1-2.32,1.27,5.88,5.88,0,0,1,1.15.79,5.5,5.5,0,0,1,1,1.12ZM373.68,82.29a6.31,6.31,0,0,0,2.17-.33,3.84,3.84,0,0,0,1.47-.89,3.4,3.4,0,0,0,.83-1.34,5.25,5.25,0,0,0,.26-1.66,3.46,3.46,0,0,0-1.16-2.77,5.34,5.34,0,0,0-3.57-1h-2.52v8Z"/><path class="cls-1" d="M412.75,69.62V96.57H409.5a2.87,2.87,0,0,1-1.21-.23,3.05,3.05,0,0,1-1-.81L394.61,79.46c.05.48.08,1,.1,1.4s0,.87,0,1.26V96.57h-5.51V69.62h3.29a4.58,4.58,0,0,1,.69,0,1.47,1.47,0,0,1,.49.14,1.58,1.58,0,0,1,.43.28,4.76,4.76,0,0,1,.46.5l12.82,16.18c-.06-.51-.11-1-.13-1.5s0-1,0-1.38V69.62Z"/><path class="cls-1" d="M424.26,74.43v6.29h8.47v4.62h-8.47v6.42h11.06v4.81H418V69.62h17.35v4.81Z"/><path class="cls-1" d="M461.21,96.57h-5.66a2.41,2.41,0,0,1-2.26-1.19l-4.47-7.82a2.24,2.24,0,0,0-.7-.73A2.14,2.14,0,0,0,447,86.6h-1.59v10h-6.26V69.62h8.77a18,18,0,0,1,5,.6,9.41,9.41,0,0,1,3.37,1.67,6.4,6.4,0,0,1,1.9,2.54,8.45,8.45,0,0,1,.59,3.18,8.74,8.74,0,0,1-.35,2.48,7.78,7.78,0,0,1-1,2.15A8.08,8.08,0,0,1,455.69,84a8.92,8.92,0,0,1-2.32,1.27,5.81,5.81,0,0,1,1.14.79,5.88,5.88,0,0,1,1,1.12ZM447.93,82.29A6.27,6.27,0,0,0,450.1,82a3.84,3.84,0,0,0,1.47-.89,3.42,3.42,0,0,0,.84-1.34,5.25,5.25,0,0,0,.25-1.66,3.46,3.46,0,0,0-1.15-2.77,5.35,5.35,0,0,0-3.58-1h-2.51v8Z"/><path class="cls-1" d="M469.68,68.37a8,8,0,0,1,2.14.28,7.92,7.92,0,0,1,3.54,2.07,7.89,7.89,0,0,1,1.27,1.62,8.29,8.29,0,0,1,.8,1.91,7.62,7.62,0,0,1,.29,2.14,7.49,7.49,0,0,1-.29,2.12,8.36,8.36,0,0,1-.8,1.92,7.89,7.89,0,0,1-1.27,1.62,8.2,8.2,0,0,1-1.62,1.26,8.55,8.55,0,0,1-1.92.8,8,8,0,0,1-2.14.29,7.88,7.88,0,0,1-2.13-.29,8.55,8.55,0,0,1-1.92-.8A7.92,7.92,0,0,1,464,82.05a8.2,8.2,0,0,1-1.26-1.62,8.07,8.07,0,0,1-.81-1.91,7.88,7.88,0,0,1-.29-2.13,8,8,0,0,1,.29-2.14,7.9,7.9,0,0,1,.81-1.91A8.2,8.2,0,0,1,464,70.72a7.92,7.92,0,0,1,1.62-1.26,8.14,8.14,0,0,1,1.92-.81A7.88,7.88,0,0,1,469.68,68.37Zm4.56,12.55A6.58,6.58,0,0,0,476,76.39a6.79,6.79,0,0,0-.22-1.76,6.94,6.94,0,0,0-.62-1.57,6.65,6.65,0,0,0-1-1.32,5.93,5.93,0,0,0-1.27-1,6.59,6.59,0,0,0-1.51-.66,6.27,6.27,0,0,0-1.69-.23,6,6,0,0,0-2.46.51,6.11,6.11,0,0,0-2,1.4,6.34,6.34,0,0,0-1.33,2.08,6.87,6.87,0,0,0-.48,2.57,6.73,6.73,0,0,0,.48,2.55,6.3,6.3,0,0,0,3.3,3.45,6.11,6.11,0,0,0,2.46.5,6.19,6.19,0,0,0,2.33-.44,6.48,6.48,0,0,0,1.93-1.23H471.6a.84.84,0,0,1-.82-.42l-1-2.49a.82.82,0,0,0-.25-.27.81.81,0,0,0-.39-.08h-.35v3.26H465.9V71.5h3.8a7.73,7.73,0,0,1,1.86.2,3.52,3.52,0,0,1,1.28.56,2.2,2.2,0,0,1,.74.9,3,3,0,0,1,.24,1.23,3.45,3.45,0,0,1-.11.87,2.64,2.64,0,0,1-.33.77A2.72,2.72,0,0,1,472,77.12a1.46,1.46,0,0,1,.53.42,3.56,3.56,0,0,1,.39.61ZM469.48,76a3.47,3.47,0,0,0,.82-.08,1.07,1.07,0,0,0,.44-.23.61.61,0,0,0,.19-.39,2.75,2.75,0,0,0,0-.52,2.37,2.37,0,0,0,0-.49.74.74,0,0,0-.16-.36.91.91,0,0,0-.39-.22,2.48,2.48,0,0,0-.68-.07h-.91V76Z"/><path class="cls-1" d="M151.76,129.39a1.42,1.42,0,0,1,.45.08,1.14,1.14,0,0,1,.42.29l2.48,2.61a10.25,10.25,0,0,1-4.08,3.2,14.08,14.08,0,0,1-5.79,1.09,13.78,13.78,0,0,1-5.51-1,11.91,11.91,0,0,1-4.12-2.88,12.7,12.7,0,0,1-2.6-4.37,16.2,16.2,0,0,1-.91-5.48,15.24,15.24,0,0,1,1-5.54,13.07,13.07,0,0,1,2.76-4.36,12.42,12.42,0,0,1,4.25-2.85,15.27,15.27,0,0,1,8.32-.74,12.77,12.77,0,0,1,2.5.74,11.54,11.54,0,0,1,2.15,1.13,12,12,0,0,1,1.74,1.45l-2.11,2.83a3.05,3.05,0,0,1-.48.47,1.29,1.29,0,0,1-.78.21,1.39,1.39,0,0,1-.63-.15,7.07,7.07,0,0,1-.63-.36l-.73-.46a5.15,5.15,0,0,0-.94-.46,7.06,7.06,0,0,0-1.28-.36,8.49,8.49,0,0,0-1.71-.15,7,7,0,0,0-2.84.57,6.23,6.23,0,0,0-2.22,1.68,7.73,7.73,0,0,0-1.44,2.7,12,12,0,0,0-.51,3.65,11,11,0,0,0,.57,3.68,8.19,8.19,0,0,0,1.53,2.71,6.59,6.59,0,0,0,2.27,1.67,6.8,6.8,0,0,0,2.77.57,12.49,12.49,0,0,0,1.56-.08,6.76,6.76,0,0,0,1.31-.28,5.67,5.67,0,0,0,1.15-.51,7.5,7.5,0,0,0,1.09-.83,2.15,2.15,0,0,1,.48-.3A1.24,1.24,0,0,1,151.76,129.39Z"/><path class="cls-1" d="M181.37,109.41v27h-6.28V125h-11v11.39h-6.29v-27h6.29v11.27h11V109.41Z"/><path class="cls-1" d="M192.88,114.22v6.29h8.47v4.62h-8.47v6.42h11.06v4.81H186.59v-27h17.35v4.81Z"/><path class="cls-1" d="M238.08,109.41v27h-5.51v-15.5c0-.36,0-.74,0-1.16s.06-.85.1-1.28l-7.15,13.85a2.26,2.26,0,0,1-.9,1,2.4,2.4,0,0,1-1.28.34h-.86a2.4,2.4,0,0,1-1.28-.34,2.26,2.26,0,0,1-.9-1l-7.16-13.89c0,.45.07.88.1,1.31s0,.81,0,1.17v15.5h-5.51v-27h4.77l.72,0a1.78,1.78,0,0,1,.54.11,1.25,1.25,0,0,1,.44.29,2.37,2.37,0,0,1,.38.55L221.56,124c.25.47.49,1,.71,1.46s.45,1,.66,1.56q.31-.81.66-1.59a15.66,15.66,0,0,1,.73-1.48l6.91-13.61a2.37,2.37,0,0,1,.38-.55,1.25,1.25,0,0,1,.44-.29,1.78,1.78,0,0,1,.54-.11l.72,0Z"/><path class="cls-1" d="M249.58,136.36h-6.29v-27h6.29Z"/><path class="cls-1" d="M261.05,120.33h1a2.25,2.25,0,0,0,2-.87l6.07-8.81a3,3,0,0,1,1.15-1,3.91,3.91,0,0,1,1.55-.27h5.44l-8,10.9a5.46,5.46,0,0,1-1.83,1.62,4.72,4.72,0,0,1,1.27.73,5.28,5.28,0,0,1,1.07,1.2l8.14,12.5h-5.58a4.85,4.85,0,0,1-.92-.07,2.26,2.26,0,0,1-.65-.23,1.6,1.6,0,0,1-.49-.36,3.33,3.33,0,0,1-.38-.49l-6.11-9.37a1.78,1.78,0,0,0-.84-.73,3.49,3.49,0,0,0-1.38-.22h-1.51v11.47H254.8v-27h6.25Z"/><path class="cls-1" d="M305.1,136.36h-4.84a2.13,2.13,0,0,1-1.32-.38,2.44,2.44,0,0,1-.76-1l-1.59-4.7H286.35l-1.59,4.7a2.21,2.21,0,0,1-.73.93,2,2,0,0,1-1.31.42h-4.88l10.43-27h6.4Zm-9.93-10.3-2.5-7.38c-.18-.47-.38-1-.59-1.66s-.42-1.32-.63-2.06c-.18.75-.38,1.45-.59,2.09s-.41,1.2-.59,1.67l-2.48,7.34Z"/><path class="cls-1" d="M323.47,131.37v5H307.23v-27h6.25v22Z"/><path class="cls-1" d="M332.93,136.36h-6.28v-27h6.28Z"/><path class="cls-1" d="M344.44,114.22v6.29h8.47v4.62h-8.47v6.42H355.5v4.81H338.15v-27H355.5v4.81Z"/><path class="cls-1" d="M382.87,109.41v27h-3.26a2.48,2.48,0,0,1-2.18-1l-12.71-16.07c0,.48.09,1,.11,1.4s0,.87,0,1.27v14.44h-5.51v-27h3.3a6.07,6.07,0,0,1,.68,0,1.94,1.94,0,0,1,.5.14,1.44,1.44,0,0,1,.42.29,4.79,4.79,0,0,1,.47.5l12.81,16.18c-.06-.52-.1-1-.13-1.51s0-.94,0-1.38V109.41Z"/><circle class="cls-2" cx="22.58" cy="164.91" r="12.86"/><path class="cls-3" d="M22.47,138.28a25.9,25.9,0,0,1,6.39.82,194.13,194.13,0,0,1,19-122.58l1.68-3.25L26.53,0,24.68,3.55A221.2,221.2,0,0,0,3.26,146.73,26.11,26.11,0,0,1,22.47,138.28Z"/><path class="cls-3" d="M47.85,195.52c-2.27-4.39-4.29-8.84-6.21-13.33a26,26,0,0,1-19.17,8.42,26.36,26.36,0,0,1-6.38-.81c2.6,6.3,5.4,12.55,8.6,18.69L26.54,212l23-13.27Z"/><circle class="cls-2" cx="55.07" cy="85.68" r="14.31"/><path class="cls-4" d="M55.76,58a28.42,28.42,0,0,1,14.73,4.12,169.83,169.83,0,0,1,13-33.43l1.67-3.25-20.8-12L62.49,17A193.42,193.42,0,0,0,46.26,59.68,28.52,28.52,0,0,1,55.76,58Z"/><path class="cls-4" d="M83.46,183.32A167,167,0,0,1,64.84,113.9a28.76,28.76,0,0,1-9.08,1.49,28.44,28.44,0,0,1-15-4.28A190.75,190.75,0,0,0,62.49,195l1.85,3.55,20.8-12Z"/><circle class="cls-2" cx="100.56" cy="126.64" r="12.95"/><path class="cls-5" d="M112.77,150A26.08,26.08,0,0,1,90,148.41a163.06,163.06,0,0,0,12.68,32.44l1.85,3.55L123,173.72l-1.68-3.25A143.45,143.45,0,0,1,112.77,150Z"/><path class="cls-5" d="M103,99.26a25.53,25.53,0,0,1,2.79.15,139.31,139.31,0,0,1,15.53-57.83L123,38.33,104.52,27.65l-1.85,3.55A160.39,160.39,0,0,0,84.28,106c0,.36,0,.72,0,1.08A26.22,26.22,0,0,1,103,99.26Z"/><polygon class="cls-2" points="29.41 161.25 23.8 159.37 49.72 82.4 96.25 117.96 92.66 122.65 52.69 92.11 29.41 161.25"/></svg>